<?xml version="1.0" standalone="no"?>
<!DOCTYPE svg PUBLIC "-//W3C//DTD SVG 20010904//EN"
 "http://www.w3.org/TR/2001/REC-SVG-20010904/DTD/svg10.dtd">
<svg version="1.0" xmlns="http://www.w3.org/2000/svg"
 width="474.000000pt" height="474.000000pt" viewBox="0 0 474.000000 474.000000"
 preserveAspectRatio="xMidYMid meet">
<metadata>
Created by potrace 1.11, written by Peter Selinger 2001-2013
</metadata>
<g transform="translate(0.000000,474.000000) scale(0.100000,-0.100000)"
fill="#000000" stroke="none">
<path d="M1340 4620 c-60 -60 -123 -274 -137 -462 -6 -87 -7 -89 -54 -148
-103 -129 -171 -286 -215 -496 -24 -113 -27 -150 -26 -299 0 -93 2 -192 4
-220 l3 -50 -33 -3 c-39 -4 -65 14 -59 40 4 12 0 18 -11 17 -24 -1 -70 -17
-54 -18 17 -1 15 -28 -4 -35 -32 -12 -84 -7 -84 9 0 8 -2 15 -5 15 -15 0 -139
-47 -189 -72 -33 -17 -67 -27 -79 -24 -34 8 -78 -5 -94 -30 -21 -33 -35 -103
-28 -142 5 -28 10 -33 26 -29 12 3 28 -2 39 -13 16 -16 17 -35 12 -258 l-5
-240 -37 -6 c-47 -7 -100 -63 -100 -105 0 -19 -8 -34 -24 -44 -13 -9 -37 -42
-53 -74 -25 -51 -28 -69 -28 -148 1 -81 5 -100 39 -185 21 -52 46 -121 55
-155 19 -70 43 -84 60 -34 6 18 11 44 11 58 0 23 4 21 30 -22 17 -26 36 -70
42 -97 6 -28 17 -50 24 -50 41 0 46 123 9 237 -13 42 -23 78 -22 80 2 1 11
-13 22 -32 29 -55 51 -47 58 23 1 18 7 32 12 32 42 0 97 -15 111 -31 26 -29
82 -61 94 -54 15 9 40 73 40 101 0 14 20 42 55 77 50 49 55 58 55 98 0 54 31
123 60 139 13 7 37 12 56 13 l33 1 -27 23 c-15 13 -39 29 -54 36 -16 6 -28 16
-28 20 0 18 -117 130 -150 144 -30 13 -32 16 -16 25 40 22 155 57 211 63 l60
7 18 -36 c16 -34 16 -39 1 -67 -8 -17 -31 -46 -51 -65 -34 -34 -31 -44 9 -23
18 10 19 8 13 -11 -7 -21 -6 -21 19 -5 14 10 26 24 26 32 0 7 9 23 20 35 l20
22 0 -25 c0 -26 54 -99 72 -99 6 0 3 9 -7 20 -24 26 -13 36 24 20 17 -6 36
-10 43 -7 7 3 3 6 -9 6 -13 1 -23 6 -23 13 0 6 -3 9 -6 5 -7 -6 -59 38 -59 51
-1 4 -5 17 -9 30 -5 17 -3 29 9 42 27 30 22 70 -12 100 -35 31 -31 55 17 100
17 15 30 35 30 44 0 27 -53 46 -122 43 -54 -2 -63 -5 -66 -22 -2 -13 11 -34
33 -55 19 -18 35 -40 35 -46 0 -7 8 -18 18 -24 15 -10 15 -11 -3 -4 -11 4 -60
9 -110 10 -131 4 -261 -34 -353 -103 -23 -18 -33 -21 -36 -11 -6 15 -26 266
-26 314 0 28 5 36 35 50 37 17 65 58 65 93 0 33 86 56 210 56 95 0 110 -3 163
-29 32 -16 56 -34 54 -40 -5 -17 -58 -40 -106 -46 -25 -3 -46 -10 -48 -17 -7
-20 61 -62 126 -78 63 -17 125 -14 165 7 32 17 38 -4 21 -78 -9 -38 -24 -83
-35 -101 -18 -31 -18 -33 -2 -41 39 -20 72 -22 107 -5 19 9 35 21 36 27 2 23
17 -41 18 -77 1 -47 23 -58 55 -28 l23 22 56 -88 c76 -120 134 -183 222 -241
40 -28 79 -52 85 -54 9 -3 8 -18 -4 -58 -9 -29 -16 -80 -16 -112 0 -66 -11
-58 127 -81 l83 -14 6 36 c16 97 67 191 105 191 10 0 27 10 38 22 18 19 90 52
98 44 1 -1 7 -38 12 -82 23 -179 56 -277 104 -304 24 -14 28 -13 41 5 9 11 16
14 16 8 0 -7 8 -13 19 -13 10 0 24 -7 31 -15 7 -9 15 -13 17 -11 3 3 15 -4 26
-15 11 -10 35 -24 51 -30 18 -6 38 -25 47 -42 8 -17 21 -33 28 -35 20 -7 3 39
-21 58 -12 10 -17 22 -12 33 5 14 1 16 -25 11 -20 -4 -31 -3 -31 5 0 6 -6 11
-14 11 -8 0 -21 9 -29 20 -8 12 -18 20 -23 18 -15 -5 -56 43 -50 58 3 8 9 14
13 13 19 -3 25 2 14 14 -8 11 -4 20 20 41 43 39 120 86 140 86 29 0 129 134
121 162 -1 4 6 5 16 2 13 -4 11 -1 -5 14 -13 11 -23 22 -23 25 0 3 28 3 63 1
34 -2 172 -8 307 -14 135 -6 305 -15 378 -21 101 -9 139 -8 162 1 37 15 46 38
19 49 -15 5 -22 18 -25 44 -4 52 -20 77 -61 93 -27 12 -42 13 -69 4 -19 -6
-37 -17 -41 -25 -7 -11 -33 -11 -153 1 -80 7 -152 13 -160 14 -8 0 26 20 77
44 50 24 124 65 163 90 l71 46 39 -26 c43 -29 57 -53 38 -67 -9 -6 -8 -7 5 -3
10 3 69 7 130 8 69 1 88 3 50 5 -49 3 -61 7 -56 18 3 8 19 16 37 16 25 1 26 3
7 6 -20 4 -22 9 -17 33 5 26 3 29 -27 32 -51 5 -49 48 7 145 99 171 174 399
197 603 14 122 6 308 -16 392 -22 86 -125 266 -210 367 -23 28 -34 50 -30 60
30 74 52 379 37 491 -15 105 -28 114 -147 107 -118 -8 -190 -28 -303 -82 l-94
-45 -101 34 c-131 45 -230 64 -381 76 -261 20 -400 11 -605 -41 -63 -15 -118
-26 -124 -22 -5 3 -37 27 -71 52 -96 72 -299 171 -353 171 -7 0 -22 -9 -33
-20z m1040 -1225 c301 -39 382 -45 654 -50 222 -4 264 -8 300 -23 110 -49 186
-219 186 -417 0 -187 -63 -339 -194 -469 -143 -142 -288 -208 -516 -236 -218
-26 -523 6 -760 82 -265 84 -404 216 -460 434 -21 81 -29 253 -10 224 8 -12
10 -11 10 8 0 62 59 128 262 295 64 53 133 116 153 140 l38 45 76 -5 c42 -2
159 -15 261 -28z m-1305 -445 c23 -25 5 -50 -36 -50 -26 0 -59 22 -59 39 0 33
68 41 95 11z m-67 -543 c13 5 14 3 5 -7 -13 -14 -33 -5 -32 13 0 9 2 9 5 0 3
-7 13 -9 22 -6z m2 -68 c0 -5 -4 -9 -8 -9 -5 0 -9 7 -9 15 0 8 4 12 9 9 4 -3
8 -9 8 -15z m664 -122 c23 -17 17 -51 -9 -55 -11 -1 -29 4 -40 12 -19 14 -19
15 -1 35 22 25 26 25 50 8z m-986 -42 c123 -37 137 -160 31 -288 -81 -99 -229
-107 -276 -16 -21 40 -15 92 17 156 40 80 87 131 135 148 22 8 40 14 41 15 0
0 24 -7 52 -15z m1175 -12 c37 -9 67 -21 67 -25 0 -5 -11 -13 -24 -19 -25 -12
-65 5 -131 51 -28 21 -29 22 -5 16 14 -4 55 -14 93 -23z m-65 -49 c12 -8 22
-26 22 -40 0 -20 -5 -24 -29 -24 -33 0 -61 22 -61 49 0 35 31 42 68 15z m407
-52 c-3 -3 -11 0 -18 7 -9 10 -8 11 6 5 10 -3 15 -9 12 -12z m1184 10 c24 -4
46 -13 49 -19 6 -21 -192 -18 -212 3 -9 8 -16 17 -16 20 0 6 129 3 179 -4z"/>
<path d="M2144 3104 c-5 -1 -30 -5 -55 -9 -26 -3 -72 -21 -104 -40 -32 -19
-63 -35 -70 -35 -8 0 -23 12 -34 26 -15 20 -21 22 -21 10 0 -9 9 -25 20 -36
l20 -20 -20 0 c-11 0 -29 9 -40 20 -14 14 -20 16 -20 7 0 -17 29 -43 55 -50
14 -3 12 -5 -9 -6 -16 0 -38 7 -48 16 -18 16 -18 16 -12 0 7 -20 35 -37 59
-37 8 0 38 16 66 35 56 38 82 46 55 16 -23 -25 -46 -104 -46 -155 0 -129 79
-225 167 -206 53 12 79 35 109 97 49 100 34 249 -30 302 -9 8 -16 17 -16 22 0
12 69 -1 119 -22 50 -22 54 -23 46 -9 -20 33 -152 84 -191 74z"/>
<path d="M3084 3028 c-25 -5 -57 -23 -80 -44 l-39 -35 43 21 c23 11 42 18 42
16 0 -3 -10 -25 -22 -48 -31 -58 -38 -190 -13 -254 22 -57 66 -94 112 -94 83
0 148 100 148 230 0 42 -6 90 -14 108 -7 18 -12 35 -9 37 2 3 26 -10 53 -28
100 -67 105 -69 130 -63 13 3 30 16 36 29 12 21 11 21 -8 5 -11 -10 -33 -18
-49 -18 l-29 0 35 18 c24 12 36 25 38 42 2 24 2 24 -9 5 -17 -27 -30 -35 -59
-34 -15 0 -19 3 -10 6 20 7 40 33 40 51 0 9 -8 4 -21 -12 -23 -29 -50 -34 -69
-10 -45 53 -165 88 -246 72z"/>
<path d="M2668 2586 c-21 -15 -24 -66 -6 -84 17 -17 64 -15 82 4 22 21 20 50
-4 74 -23 23 -47 25 -72 6z"/>
<path d="M2535 2420 c-11 -17 34 -59 76 -71 20 -7 53 -9 72 -5 40 7 87 41 87
62 0 18 -19 18 -26 0 -3 -8 -21 -22 -41 -31 -46 -22 -93 -13 -131 26 -20 20
-32 27 -37 19z"/>
<path d="M695 2130 c-3 -5 5 -21 19 -35 28 -28 62 -34 52 -9 -3 9 -6 17 -6 20
0 10 -60 33 -65 24z"/>
<path d="M557 2088 c-5 -17 3 -48 13 -48 5 0 13 14 19 30 9 26 8 30 -9 30 -10
0 -20 -6 -23 -12z"/>
<path d="M630 2070 c0 -5 5 -10 10 -10 6 0 10 5 10 10 0 6 -4 10 -10 10 -5 0
-10 -4 -10 -10z"/>
<path d="M570 1952 c0 -25 31 -52 58 -52 28 0 29 30 4 53 -25 23 -62 22 -62
-1z"/>
<path d="M4185 2920 c-5 -17 -12 -20 -30 -16 -13 3 -34 2 -47 -3 l-23 -9 27
-11 c15 -5 34 -22 44 -36 22 -33 44 -32 79 5 16 17 34 30 41 30 6 0 17 7 24
15 10 12 8 16 -13 24 -14 5 -34 7 -46 4 -12 -3 -27 0 -35 6 -11 10 -16 8 -21
-9z"/>
<path d="M3755 2720 c-3 -11 -1 -54 4 -96 11 -75 11 -77 -21 -141 -25 -51 -32
-81 -36 -143 -4 -76 -5 -79 -31 -83 l-26 -4 25 -2 c21 -1 28 -9 39 -46 25 -85
109 -162 210 -192 l52 -15 -53 -31 c-60 -37 -100 -89 -96 -127 4 -32 26 -32
46 0 11 18 12 21 2 13 -18 -16 -30 -16 -30 0 0 15 38 40 50 32 5 -3 25 6 46
20 20 14 46 25 58 25 13 0 28 11 39 30 19 32 47 40 47 15 0 -23 27 -29 53 -13
12 8 34 17 50 20 27 5 27 5 27 -54 0 -55 2 -59 20 -53 24 8 25 2 4 -19 -17
-18 -104 -23 -104 -6 0 6 -9 10 -20 10 -23 0 -38 -45 -23 -69 5 -9 31 -20 56
-25 57 -11 113 3 158 41 30 25 31 30 27 84 -3 39 -11 65 -23 79 -16 18 -17 23
-5 30 33 21 46 12 42 -30 -3 -29 0 -40 9 -40 10 0 13 13 12 47 -3 46 -1 49 42
80 l45 32 67 -20 c37 -12 92 -32 122 -45 30 -13 56 -23 58 -20 5 5 -92 46
-170 71 -71 23 -84 36 -45 47 14 4 17 6 6 7 -15 1 -15 5 2 49 23 59 30 147 18
214 -7 39 -6 65 7 112 9 34 15 79 13 101 -3 39 -4 40 -46 43 -24 2 -66 -4 -95
-12 -49 -14 -55 -14 -109 6 -53 19 -78 44 -65 65 3 5 -11 8 -31 8 -21 1 -46 5
-57 9 -14 5 -16 5 -7 -2 21 -14 -33 -48 -87 -55 -35 -4 -51 -1 -72 14 -81 57
-191 79 -204 39z m325 -244 c0 -12 5 -27 12 -34 8 -8 8 -15 0 -25 -10 -12 -2
-15 50 -21 130 -13 191 -94 158 -212 -29 -103 -119 -149 -279 -142 -77 3 -96
7 -156 38 -89 46 -127 97 -133 178 -8 111 54 181 144 162 110 -23 103 -24 110
21 12 71 94 101 94 35z"/>
<path d="M3810 2266 c-8 -25 -8 -40 1 -60 17 -38 50 -31 63 12 20 70 -41 117
-64 48z"/>
<path d="M4096 2251 c-22 -24 -18 -90 7 -105 42 -26 84 52 53 99 -20 30 -37
32 -60 6z"/>
<path d="M3927 2184 c-8 -8 1 -24 14 -24 5 0 9 7 9 15 0 15 -12 20 -23 9z"/>
<path d="M3939 2108 c13 -35 38 -46 58 -25 17 17 17 19 -1 33 -11 8 -30 14
-43 14 -19 0 -21 -3 -14 -22z"/>
<path d="M4518 2113 c7 -3 16 -2 19 1 4 3 -2 6 -13 5 -11 0 -14 -3 -6 -6z"/>
<path d="M4558 2103 c7 -3 16 -2 19 1 4 3 -2 6 -13 5 -11 0 -14 -3 -6 -6z"/>
<path d="M4639 2079 c30 -10 56 -17 58 -15 5 5 -86 36 -101 35 -6 0 13 -9 43
-20z"/>
<path d="M4718 2053 c7 -3 16 -2 19 1 4 3 -2 6 -13 5 -11 0 -14 -3 -6 -6z"/>
<path d="M1046 2007 c3 -10 9 -15 12 -12 3 3 0 11 -7 18 -10 9 -11 8 -5 -6z"/>
<path d="M995 1980 c-3 -5 -1 -10 4 -10 6 0 11 5 11 10 0 6 -2 10 -4 10 -3 0
-8 -4 -11 -10z"/>
<path d="M2012 1806 c6 -14 17 -27 24 -30 9 -3 5 7 -8 24 -26 36 -31 38 -16 6z"/>
<path d="M1970 1811 c0 -5 5 -13 10 -16 6 -3 10 -2 10 4 0 5 -4 13 -10 16 -5
3 -10 2 -10 -4z"/>
<path d="M4338 1766 c-32 -40 -35 -72 -11 -124 15 -30 19 -76 23 -256 l5 -219
24 -8 23 -9 -6 142 c-4 79 -9 178 -12 221 -6 74 -5 79 15 84 25 6 27 19 6 39
-10 10 -15 35 -15 73 0 31 -6 65 -12 74 -12 16 -16 14 -40 -17z"/>
<path d="M1997 1783 c-2 -5 4 -21 13 -37 l18 -28 -1 25 c-1 14 -6 25 -12 24
-5 -1 -9 4 -7 11 2 13 -4 16 -11 5z"/>
<path d="M2045 1749 c-8 -12 0 -22 20 -25 8 -1 13 2 9 7 -3 5 -10 6 -16 3 -7
-5 -9 -1 -5 9 7 19 2 23 -8 6z"/>
<path d="M3392 1707 c-73 -25 -91 -35 -86 -47 29 -64 6 -139 -44 -141 l-27 -1
30 -9 c50 -16 121 -1 168 35 52 39 103 133 93 170 -8 33 -19 32 -134 -7z"/>
<path d="M2046 1698 c3 -5 10 -6 15 -3 13 9 11 12 -6 12 -8 0 -12 -4 -9 -9z"/>
<path d="M3766 1683 c-3 -16 -20 -118 -37 -227 -25 -164 -28 -204 -19 -225 12
-25 13 -25 20 -6 4 11 18 106 29 210 12 105 24 205 28 222 l5 33 22 -33 c28
-41 65 -54 116 -40 l40 10 0 -29 c0 -21 11 -41 34 -64 42 -42 71 -46 62 -8
-10 40 2 81 26 87 16 5 18 3 9 -6 -8 -8 -11 -107 -11 -343 l0 -332 30 -11 30
-10 -5 92 c-17 302 -26 632 -16 635 6 2 20 11 31 20 20 16 15 17 -102 18 -76
1 -149 7 -191 18 -90 21 -94 21 -101 -11z"/>
<path d="M4219 1623 c-13 -16 -12 -17 4 -4 16 13 21 21 13 21 -2 0 -10 -8 -17
-17z"/>
<path d="M2097 1611 c6 -3 13 -16 17 -28 4 -13 12 -23 19 -23 8 0 8 3 -1 12
-14 14 -16 42 -3 33 5 -3 12 -2 14 2 3 5 -8 9 -25 10 -17 0 -26 -2 -21 -6z"/>
<path d="M2410 1580 c0 -5 5 -10 11 -10 5 0 7 5 4 10 -3 6 -8 10 -11 10 -2 0
-4 -4 -4 -10z"/>
<path d="M2141 1543 c-1 -17 16 -25 25 -12 4 7 3 9 -4 5 -5 -3 -13 0 -15 6 -4
9 -6 10 -6 1z"/>
<path d="M2465 1540 c3 -5 8 -10 11 -10 2 0 4 5 4 10 0 6 -5 10 -11 10 -5 0
-7 -4 -4 -10z"/>
<path d="M3942 1473 c-1 -43 -5 -101 -8 -130 -5 -45 -3 -53 14 -62 12 -6 23
-11 26 -11 3 0 6 60 6 134 0 113 -2 135 -16 140 -9 3 -17 6 -18 6 -1 0 -3 -35
-4 -77z"/>
<path d="M2170 1491 c5 -11 15 -23 21 -27 6 -3 3 5 -6 20 -20 30 -30 35 -15 7z"/>
<path d="M2224 1445 c-4 -8 -11 -12 -16 -9 -6 4 -5 -3 1 -15 14 -25 23 -28 14
-4 -4 9 -2 14 3 10 5 -3 10 3 10 14 0 23 -5 24 -12 4z"/>
<path d="M2913 1437 c-1 -11 -1 -18 0 -16 2 2 8 11 15 20 9 12 9 16 -1 16 -7
0 -14 -9 -14 -20z"/>
<path d="M2926 1415 c-4 -11 -2 -14 6 -9 8 5 9 2 5 -9 -3 -9 -2 -19 3 -22 4
-3 7 6 5 20 -3 32 -11 40 -19 20z"/>
<path d="M2270 1401 c0 -6 4 -13 10 -16 6 -3 7 1 4 9 -7 18 -14 21 -14 7z"/>
<path d="M2520 1381 c0 -12 6 -21 13 -21 8 0 7 -4 -3 -10 -8 -5 -10 -10 -5
-10 6 0 17 5 25 10 10 6 11 10 3 10 -7 0 -13 6 -13 14 0 8 -4 18 -10 21 -5 3
-10 -3 -10 -14z"/>
<path d="M1021 1334 c0 -11 3 -14 6 -6 3 7 2 16 -1 19 -3 4 -6 -2 -5 -13z"/>
<path d="M2558 1333 c6 -2 18 -2 25 0 6 3 1 5 -13 5 -14 0 -19 -2 -12 -5z"/>
<path d="M3482 1275 c-22 -25 -48 -45 -57 -45 -29 0 -96 -41 -140 -85 -24 -24
-54 -45 -67 -47 -22 -3 -23 -6 -22 -113 0 -99 3 -115 27 -161 50 -98 130 -168
206 -180 22 -4 41 -8 41 -10 0 -3 -16 -29 -36 -59 -26 -39 -38 -70 -42 -105
-2 -28 -9 -50 -14 -50 -5 0 -18 -20 -29 -45 -16 -37 -19 -62 -17 -152 l3 -108
123 -3 122 -3 1 36 c4 92 1 90 85 54 60 -25 63 -25 145 16 l70 36 -3 86 -3 87
-43 13 c-23 6 -40 8 -37 2 4 -5 16 -9 28 -9 30 0 12 -12 -66 -45 -38 -15 -65
-31 -60 -34 4 -3 9 -37 9 -74 l2 -69 -26 7 c-14 3 -41 13 -59 20 -30 13 -33
18 -33 54 0 24 -7 46 -17 57 -17 16 -18 16 -21 1 -3 -15 -17 -17 -99 -17 l-95
0 7 33 c10 46 12 47 60 47 l44 0 3 76 3 77 73 26 c47 17 72 31 72 41 0 9 19
22 48 32 169 60 205 182 117 393 -27 63 -28 31 -2 -42 47 -130 43 -210 -14
-257 -36 -31 -111 -36 -160 -11 -48 25 -89 91 -89 142 0 64 21 88 96 113 47
16 70 30 86 53 12 18 25 34 29 37 25 17 -62 63 -101 53 -12 -3 -30 7 -54 33
-40 43 -44 59 -19 86 13 15 15 23 7 36 -19 30 -39 24 -82 -23z m378 -945 c0
-77 2 -74 -92 -113 l-38 -16 0 75 0 74 53 24 c77 36 77 36 77 -44z m-302 -112
l3 -88 -101 0 -100 0 0 90 0 91 98 -3 97 -3 3 -87z"/>
<path d="M1144 1105 c0 -71 1 -99 3 -62 2 37 2 96 0 130 -2 34 -3 4 -3 -68z"/>
<path d="M2734 1215 c-3 -8 -3 -18 0 -23 3 -5 -3 -41 -14 -81 -26 -93 -26
-101 5 -101 70 0 121 62 112 134 -9 62 -86 116 -103 71z"/>
<path d="M3016 1217 c3 -10 9 -15 12 -12 3 3 0 11 -7 18 -10 9 -11 8 -5 -6z"/>
<path d="M1273 1140 c0 -47 2 -66 4 -42 2 23 2 61 0 85 -2 23 -4 4 -4 -43z"/>
<path d="M1493 1145 c0 -8 4 -12 9 -9 5 3 6 10 3 15 -9 13 -12 11 -12 -6z"/>
<path d="M2670 1101 c0 -6 4 -13 10 -16 6 -3 7 1 4 9 -7 18 -14 21 -14 7z"/>
<path d="M2108 1083 c7 -3 16 -2 19 1 4 3 -2 6 -13 5 -11 0 -14 -3 -6 -6z"/>
<path d="M2660 1065 c0 -8 7 -15 16 -15 14 0 14 3 4 15 -7 8 -14 15 -16 15 -2
0 -4 -7 -4 -15z"/>
<path d="M2260 1046 c28 -17 50 -21 35 -7 -6 5 -21 12 -35 15 l-25 7 25 -15z"/>
<path d="M3898 1033 c7 -3 16 -2 19 1 4 3 -2 6 -13 5 -11 0 -14 -3 -6 -6z"/>
<path d="M3825 1010 c-3 -6 1 -7 9 -4 18 7 21 14 7 14 -6 0 -13 -4 -16 -10z"/>
<path d="M2750 980 c6 -11 13 -20 16 -20 2 0 0 9 -6 20 -6 11 -13 20 -16 20
-2 0 0 -9 6 -20z"/>
<path d="M3750 987 c0 -7 7 -22 15 -33 12 -16 14 -17 15 -2 0 23 -11 48 -21
48 -5 0 -9 -6 -9 -13z"/>
<path d="M835 950 c3 -5 8 -10 11 -10 2 0 4 5 4 10 0 6 -5 10 -11 10 -5 0 -7
-4 -4 -10z"/>
<path d="M905 920 c4 -6 11 -8 16 -5 14 9 11 15 -7 15 -8 0 -12 -5 -9 -10z"/>
<path d="M867 893 c-14 -13 -6 -23 18 -23 16 0 25 6 25 15 0 15 -31 21 -43 8z"/>
<path d="M1143 860 c0 -25 2 -35 4 -22 2 12 2 32 0 45 -2 12 -4 2 -4 -23z"/>
<path d="M3614 889 c-9 -15 33 -56 46 -43 15 15 0 54 -21 54 -10 0 -21 -5 -25
-11z"/>
<path d="M3760 864 c0 -8 5 -12 10 -9 6 3 10 10 10 16 0 5 -4 9 -10 9 -5 0
-10 -7 -10 -16z"/>
<path d="M565 660 c-55 -8 -85 -18 -85 -30 0 -12 22 -18 88 -26 45 -5 66 -2
90 10 37 19 37 19 16 40 -16 17 -28 17 -109 6z"/>
<path d="M1171 650 c-57 -14 -114 -60 -143 -119 -50 -98 -35 -148 56 -185 137
-56 194 -76 207 -72 8 2 26 7 41 10 34 8 94 59 114 97 30 59 21 84 -69 174
-102 103 -125 114 -206 95z"/>
<path d="M782 638 c3 -7 13 -15 22 -16 12 -3 17 1 14 10 -3 7 -13 15 -22 16
-12 3 -17 -1 -14 -10z"/>
<path d="M843 624 c-32 -18 -47 -22 -60 -15 -21 10 -128 -13 -153 -33 -29 -25
-51 -26 -77 -6 -30 23 -56 26 -72 6 -6 -7 -25 -16 -41 -20 -60 -11 -27 -38 63
-51 25 -4 67 -18 93 -31 26 -13 53 -24 59 -24 7 0 18 -7 25 -15 6 -8 28 -15
48 -15 21 0 69 -3 108 -6 l71 -6 -5 74 c-4 69 1 93 36 161 9 17 -56 5 -95 -19z"/>
<path d="M378 633 c-40 -6 -35 -29 5 -28 38 2 60 12 52 26 -6 9 -9 9 -57 2z"/>
<path d="M2123 535 c0 -22 2 -30 4 -17 2 12 2 30 0 40 -3 9 -5 -1 -4 -23z"/>
<path d="M536 425 c-22 -17 -13 -35 18 -35 29 0 61 24 52 38 -10 16 -47 14
-70 -3z"/>
</g>
</svg>
